<?xml version="1.0" standalone="no"?>
<!DOCTYPE svg PUBLIC "-//W3C//DTD SVG 20010904//EN"
 "http://www.w3.org/TR/2001/REC-SVG-20010904/DTD/svg10.dtd">
<svg version="1.0" xmlns="http://www.w3.org/2000/svg"
 width="260.000000pt" height="260.000000pt" viewBox="0 0 260.000000 260.000000"
 preserveAspectRatio="xMidYMid meet">
<metadata>
Created by potrace 1.11, written by Peter Selinger 2001-2013
</metadata>
<g transform="translate(0.000000,260.000000) scale(0.100000,-0.100000)"
fill="#000000" stroke="none">
<path d="M1527 2549 c-29 -46 -30 -68 -5 -73 61 -14 63 -13 66 27 3 29 -1 39
-15 44 -10 4 -21 11 -24 16 -4 5 -14 -1 -22 -14z"/>
<path d="M1004 2545 c3 -8 1 -15 -4 -15 -6 0 -9 -15 -7 -33 1 -27 6 -33 20
-29 9 2 20 9 24 15 3 6 1 7 -5 3 -7 -4 -12 -3 -12 3 0 5 4 12 9 15 13 8 2 44
-16 50 -11 4 -13 2 -9 -9z"/>
<path d="M1053 2552 c-10 -7 -10 -12 1 -27 13 -19 14 -18 13 8 -1 15 -2 27 -2
27 0 0 -6 -4 -12 -8z"/>
<path d="M1234 2522 c-16 -20 -34 -44 -39 -52 -8 -13 -7 -13 9 0 20 16 22 16
78 18 38 2 39 3 29 65 -3 21 -49 3 -77 -31z"/>
<path d="M1392 2534 c9 -9 21 -15 27 -13 6 2 -2 10 -17 17 -25 11 -25 11 -10
-4z"/>
<path d="M1178 2505 c-10 -13 -18 -27 -18 -31 0 -10 30 17 41 38 14 26 -3 22
-23 -7z"/>
<path d="M1360 2520 c0 -5 5 -10 11 -10 5 0 7 5 4 10 -3 6 -8 10 -11 10 -2 0
-4 -4 -4 -10z"/>
<path d="M1601 2514 c0 -11 3 -14 6 -6 3 7 2 16 -1 19 -3 4 -6 -2 -5 -13z"/>
<path d="M1058 2483 c7 -3 16 -2 19 1 4 3 -2 6 -13 5 -11 0 -14 -3 -6 -6z"/>
<path d="M1810 2469 c0 -5 5 -7 10 -4 6 3 10 8 10 11 0 2 -4 4 -10 4 -5 0 -10
-5 -10 -11z"/>
<path d="M1265 2452 c-12 -12 -4 -20 15 -15 11 3 20 9 20 12 0 9 -27 10 -35 3z"/>
<path d="M1645 2428 c-58 -29 -62 -29 -119 -18 -32 6 -61 9 -63 6 -7 -7 8 -12
69 -24 41 -8 54 -6 108 18 57 25 96 51 75 49 -6 0 -37 -14 -70 -31z"/>
<path d="M1705 2419 c-39 -22 -78 -48 -87 -56 -16 -15 -25 -14 -93 2 -42 10
-82 14 -92 10 -13 -6 -2 -11 37 -16 30 -5 69 -12 85 -17 24 -7 39 -4 81 19 54
31 133 41 157 20 12 -9 16 -8 21 5 11 29 6 62 -10 68 -24 9 -24 9 -99 -35z"/>
<path d="M764 2442 c-15 -10 -25 -42 -14 -42 6 0 6 -9 0 -25 -10 -26 3 -35 17
-12 26 40 100 39 168 -3 35 -22 40 -22 108 -10 75 14 119 29 84 30 -10 0 -49
-7 -86 -15 l-68 -16 -83 51 c-82 49 -104 57 -126 42z"/>
<path d="M919 2415 l73 -35 55 14 c30 8 58 17 61 21 7 7 -74 -5 -102 -15 -13
-4 -38 3 -73 22 -29 15 -60 28 -70 28 -10 0 15 -16 56 -35z"/>
<path d="M1885 2400 c8 -24 21 -50 27 -58 10 -11 13 -10 20 9 5 12 6 24 3 27
-3 3 -6 -1 -6 -9 -1 -8 -4 -1 -8 15 -3 16 -16 35 -28 44 l-23 14 15 -42z"/>
<path d="M685 2328 c-8 -28 -13 -54 -10 -56 3 -3 5 -2 5 1 0 3 9 29 20 57 11
27 15 50 10 50 -5 0 -16 -23 -25 -52z"/>
<path d="M804 2345 c-10 -8 -14 -14 -9 -15 15 0 40 18 34 24 -3 3 -14 -1 -25
-9z"/>
<path d="M1737 2353 c-13 -13 -7 -20 18 -20 28 0 33 12 9 21 -19 7 -19 7 -27
-1z"/>
<path d="M1865 2333 c17 -72 29 -94 73 -130 44 -36 51 -38 125 -42 49 -2 83 1
90 8 8 8 -10 11 -68 11 -73 1 -83 3 -119 30 -22 17 -45 30 -52 30 -7 0 -17 24
-24 55 -6 30 -16 57 -21 61 -6 3 -7 -5 -4 -23z"/>
<path d="M2014 2335 c-17 -17 -32 -24 -45 -20 -14 5 -17 2 -13 -9 8 -22 72
-68 87 -63 7 2 24 -7 39 -20 34 -32 55 -27 31 7 -10 14 -16 38 -14 57 1 19 -1
32 -6 31 -12 -4 -54 28 -46 35 3 4 3 7 -1 7 -4 0 -18 -11 -32 -25z"/>
<path d="M1800 2343 c1 -11 26 -43 33 -43 4 0 1 11 -5 25 -10 23 -28 35 -28
18z"/>
<path d="M521 2323 c-24 -16 -26 -29 -8 -71 10 -24 16 -29 27 -21 13 8 12 12
-7 28 -12 10 -19 21 -16 25 11 11 23 6 23 -8 0 -24 18 -28 47 -9 67 42 66 57
-4 66 -27 3 -49 0 -62 -10z"/>
<path d="M1205 2329 c-4 -6 -17 -15 -29 -20 -15 -6 -8 -7 24 -3 53 7 60 12 40
24 -20 13 -27 12 -35 -1z"/>
<path d="M1320 2320 c0 -5 12 -10 26 -10 14 0 23 4 19 10 -3 6 -15 10 -26 10
-10 0 -19 -4 -19 -10z"/>
<path d="M890 2254 c0 -11 5 -14 16 -10 9 3 20 6 25 6 5 0 9 5 9 10 0 6 -11
10 -25 10 -16 0 -25 -6 -25 -16z"/>
<path d="M1626 2261 c-9 -14 17 -29 39 -21 19 7 19 7 -2 18 -26 14 -30 15 -37
3z"/>
<path d="M610 2215 c-40 -30 -53 -34 -120 -38 l-75 -3 78 -2 c72 -2 82 0 122
28 44 30 64 51 48 49 -4 0 -28 -16 -53 -34z"/>
<path d="M797 2219 c-17 -10 -23 -29 -9 -29 5 0 16 6 27 13 22 17 7 29 -18 16z"/>
<path d="M1153 2211 c3 -12 -1 -22 -10 -25 -22 -9 -26 -7 -19 10 3 9 2 12 -5
9 -5 -4 -16 -1 -24 5 -12 10 -15 9 -15 -5 0 -14 -3 -15 -15 -5 -9 7 -15 8 -15
2 0 -5 -20 -16 -45 -23 -40 -12 -44 -15 -29 -26 15 -11 13 -13 -12 -18 -49
-11 -74 -24 -74 -40 0 -8 -6 -15 -14 -15 -7 0 -13 8 -13 18 0 9 -1 23 -2 29
-1 15 -36 12 -53 -5 -7 -7 -18 -12 -25 -12 -7 0 -10 -6 -7 -14 3 -8 1 -17 -5
-21 -17 -10 -13 -25 7 -26 9 0 1 -7 -18 -15 -32 -13 -32 -14 -7 -10 43 5 19
-9 -45 -29 -32 -10 -55 -21 -53 -26 3 -4 -4 -10 -15 -14 -11 -3 -20 -13 -20
-21 0 -8 -4 -14 -9 -14 -5 0 -24 -12 -42 -27 -18 -16 -29 -21 -24 -13 6 11 4
11 -11 -2 -10 -9 -28 -32 -38 -50 -19 -31 -19 -32 -1 -18 15 12 14 7 -6 -30
-13 -25 -25 -47 -27 -50 -2 -2 -7 2 -12 10 -8 12 -10 12 -16 -3 -3 -9 -3 -24
0 -32 3 -9 1 -25 -4 -35 -6 -11 -14 -29 -20 -40 -6 -12 -6 -21 0 -25 10 -6
-36 -55 -51 -55 -12 0 -51 -39 -53 -54 -3 -17 -39 -76 -47 -76 -4 0 -10 -8
-12 -17 -4 -16 -5 -16 -6 -1 0 9 3 20 9 23 5 3 10 16 10 29 0 18 -10 25 -52
38 -35 11 -47 12 -35 3 17 -12 24 -65 10 -79 -4 -3 -8 -17 -10 -29 -5 -33 -24
-77 -34 -77 -13 0 -11 11 5 29 17 20 31 141 16 141 -5 0 -10 -10 -10 -23 0
-13 -3 -27 -7 -31 -4 -4 -7 -19 -8 -33 0 -20 -6 -28 -25 -33 -17 -4 -21 -8
-12 -14 7 -4 10 -12 6 -17 -3 -5 -10 -6 -16 -3 -6 4 -8 2 -5 -3 8 -13 -48 -85
-58 -75 -5 4 -5 2 -2 -5 4 -6 3 -23 -3 -37 -5 -14 -7 -32 -4 -39 6 -17 54 -21
54 -4 0 8 4 7 10 -3 7 -11 10 -7 10 17 0 22 6 36 20 43 18 10 19 8 14 -19 -4
-16 -1 -31 5 -35 6 -4 11 0 12 11 0 10 3 13 6 6 3 -8 25 -13 59 -13 41 0 54
-4 54 -15 0 -8 4 -15 10 -15 5 0 7 -7 4 -15 -8 -19 -24 -9 -24 14 0 15 -9 17
-65 16 -35 0 -68 -4 -71 -8 -10 -10 42 -63 76 -77 22 -9 29 -22 40 -68 7 -31
18 -63 23 -69 7 -9 5 -13 -6 -13 -11 0 -17 15 -22 49 -8 61 -16 71 -85 107
-30 15 -63 34 -72 42 -9 8 -22 11 -27 7 -6 -3 -11 -1 -11 6 0 7 -3 9 -6 6 -7
-6 20 -39 64 -80 12 -11 22 -29 22 -39 0 -11 4 -16 10 -13 5 3 7 0 4 -9 -7
-18 -52 -49 -62 -42 -12 7 -13 -43 -2 -64 7 -14 24 -20 58 -22 47 -3 47 -3 46
-38 -1 -19 -4 -48 -7 -65 -4 -16 -2 -32 4 -36 8 -5 8 -13 0 -28 -9 -16 -8 -27
4 -52 17 -33 49 -49 132 -69 29 -6 53 -17 53 -24 0 -7 -14 -26 -31 -43 -29
-31 -30 -33 -15 -61 21 -40 40 -45 81 -21 19 11 39 18 44 15 5 -4 15 -40 22
-82 11 -67 16 -78 45 -100 30 -23 40 -25 124 -23 50 1 93 0 95 -3 3 -3 -2 -24
-10 -48 -16 -46 -10 -64 25 -73 23 -6 39 6 78 55 l29 36 36 -66 c62 -115 137
-135 259 -68 36 19 68 33 72 29 3 -3 6 -17 6 -30 0 -40 18 -63 48 -63 37 0 52
17 52 57 0 18 4 33 9 33 5 0 32 -16 61 -35 41 -28 62 -35 99 -35 97 0 118 9
156 61 40 55 66 62 91 24 9 -14 23 -25 31 -25 8 0 11 -5 8 -10 -11 -18 13 -10
40 13 23 20 24 25 13 60 -15 49 -5 58 52 47 90 -18 137 -13 172 19 31 28 32
31 32 107 0 44 2 62 4 42 l3 -38 40 25 c31 20 43 23 59 15 24 -13 64 4 54 23
-4 7 -4 9 1 5 9 -9 35 9 35 24 0 6 -8 4 -17 -3 -12 -10 -15 -11 -9 -1 4 7 2
20 -6 30 -12 15 -11 16 5 3 21 -16 22 -2 3 25 -13 16 -13 22 -1 40 13 21 13
21 -33 16 -40 -4 -53 -11 -89 -51 -23 -25 -42 -41 -42 -36 0 6 17 29 39 53 33
37 46 44 97 52 32 6 67 10 78 9 l20 0 -20 -9 c-17 -7 -17 -9 -3 -9 10 -1 27 8
37 18 11 11 28 17 38 15 12 -3 25 6 40 28 20 30 21 37 10 75 -11 37 -14 40
-24 25 -11 -16 -12 -16 -12 0 -1 9 4 20 9 23 6 4 10 12 8 18 -4 24 31 87 49
87 14 0 15 2 4 9 -9 6 -10 11 -2 15 6 4 16 4 23 0 7 -4 8 -3 4 4 -4 7 -3 12 2
12 18 0 21 -39 3 -43 -9 -3 -4 -5 11 -6 18 -1 31 6 38 18 15 28 12 44 -6 37
-8 -3 -13 -2 -9 3 3 5 -11 19 -31 32 -30 18 -38 19 -45 8 -5 -8 -9 -18 -9 -22
0 -5 -5 -5 -10 -2 -6 4 5 25 26 51 42 51 41 63 -4 37 -32 -18 -42 -38 -42 -85
0 -16 -5 -28 -11 -28 -5 0 -7 5 -4 10 3 6 2 10 -4 10 -15 0 -23 -18 -11 -25
15 -9 12 -22 -5 -22 -19 0 -19 1 2 69 17 53 22 59 78 92 34 20 72 37 85 39 26
4 37 21 21 32 -6 3 -11 1 -11 -5 0 -6 -6 -10 -13 -8 -17 4 -117 -42 -117 -54
0 -4 -9 -8 -21 -8 -13 0 -18 -4 -13 -12 5 -7 3 -8 -6 -3 -7 4 -16 2 -21 -6 -7
-11 -9 -9 -9 7 0 16 16 29 68 55 37 18 77 43 90 54 13 11 25 19 28 18 17 -11
34 0 34 23 0 17 -12 36 -37 58 -21 18 -54 48 -73 66 -33 30 -34 31 -4 11 17
-11 37 -27 44 -36 7 -8 21 -15 32 -15 16 0 18 3 9 13 -6 8 -10 16 -8 18 1 2 0
3 -2 2 -2 -2 -25 16 -50 39 -38 36 -45 48 -44 77 1 18 -3 45 -8 59 -8 20 -5
29 13 49 16 18 24 20 31 11 6 -9 7 -7 3 5 -3 11 3 30 16 47 12 17 19 32 16 36
-3 3 -14 -6 -25 -21 -10 -14 -30 -42 -46 -62 -23 -30 -29 -49 -29 -83 0 -3 3
-31 7 -64 5 -43 4 -57 -5 -54 -7 2 -13 28 -15 65 -4 81 -24 136 -47 130 -32
-9 -19 10 35 50 28 21 62 38 73 37 16 -1 20 3 17 17 -4 12 4 24 25 36 25 15
28 22 20 42 -5 13 -7 29 -5 35 3 6 8 -1 12 -16 4 -16 11 -28 15 -28 12 0 0 38
-16 51 -8 6 -14 8 -14 3 0 -4 -15 6 -32 23 -21 19 -48 33 -72 36 -22 4 -43 12
-48 19 -4 7 -8 9 -8 5 0 -4 -14 6 -31 24 -17 17 -28 37 -25 45 3 8 1 14 -5 14
-6 0 -7 5 -4 10 4 6 1 9 -7 8 -16 -4 -12 74 7 138 12 41 11 44 -17 78 -27 33
-34 36 -81 36 -29 0 -81 -5 -117 -10 -56 -8 -67 -7 -85 9 -11 10 -37 28 -57
40 -21 13 -38 28 -38 34 0 7 -4 7 -12 -2 -11 -10 -9 -16 8 -27 12 -8 40 -32
64 -53 41 -37 44 -37 86 -28 56 13 149 -7 170 -37 14 -20 14 -20 29 -1 8 11
15 23 15 28 0 4 4 7 10 7 15 0 24 -48 12 -63 -6 -7 -16 -42 -21 -77 -11 -63
-10 -67 21 -128 31 -62 50 -78 116 -97 44 -13 15 -16 -31 -3 -37 9 -50 19 -67
50 -12 22 -26 35 -32 32 -7 -4 -8 -2 -4 5 5 7 -5 25 -23 43 -26 26 -31 29 -37
15 -4 -10 4 -29 20 -48 28 -33 26 -61 -2 -36 -22 19 -67 33 -58 18 4 -6 3 -11
-1 -11 -5 0 -14 9 -21 21 -10 16 -11 24 -1 35 7 8 18 13 26 10 16 -6 16 -5 3
30 -8 21 -7 32 6 53 l17 26 -27 -25 c-18 -16 -29 -21 -34 -13 -11 17 -46 -12
-38 -32 4 -13 2 -14 -14 -5 -11 6 -20 16 -20 22 0 6 -20 33 -45 59 -29 31 -43
53 -39 64 5 11 2 14 -10 9 -9 -3 -16 -1 -16 5 0 6 -5 11 -11 11 -6 0 -20 11
-31 26 -11 14 -23 22 -26 19 -4 -3 0 -10 8 -15 9 -6 10 -10 3 -10 -6 0 -19 10
-27 22 -9 12 -16 17 -16 10 0 -6 -5 -12 -11 -12 -5 0 -8 4 -5 9 3 4 -16 7 -41
4 -36 -3 -54 1 -75 17 -15 11 -35 20 -46 20 -10 0 -22 4 -28 9 -17 15 -78 31
-86 23 -5 -5 -32 -3 -61 5 -29 8 -64 12 -79 9 -16 -3 -28 0 -31 7 -3 8 -12 4
-27 -11 -12 -13 -29 -21 -37 -18 -8 3 -17 6 -19 6 -2 0 -4 7 -4 15 0 18 -2 19
-45 1 -19 -8 -35 -11 -35 -5 0 5 5 9 12 9 6 0 9 3 6 6 -4 3 -16 1 -27 -6 -14
-7 -21 -7 -21 0 0 5 -5 10 -11 10 -6 0 -9 -9 -6 -19z m-89 -56 c-25 -19 -40
-19 -24 0 7 8 20 15 28 15 13 0 12 -3 -4 -15z m-378 -231 c-21 -19 -40 -33
-43 -31 -4 5 67 67 77 67 3 0 -12 -16 -34 -36z m531 -10 c-3 -3 -12 -4 -19 -1
-8 3 -5 6 6 6 11 1 17 -2 13 -5z m-87 -14 c-20 -13 -33 -13 -25 0 3 6 14 10
23 10 15 0 15 -2 2 -10z m418 -35 c118 -56 214 -143 285 -258 65 -107 68 -157
7 -157 -44 0 -120 -93 -120 -146 0 -34 7 -46 48 -87 33 -33 59 -49 81 -52 58
-8 63 -19 37 -89 -61 -171 -177 -302 -331 -376 -93 -46 -115 -44 -115 9 0 19
-15 42 -54 80 -53 52 -54 53 -100 46 -38 -6 -53 -15 -86 -53 -26 -28 -40 -55
-40 -72 0 -15 -8 -34 -18 -43 -16 -15 -23 -14 -82 7 -167 58 -320 206 -381
367 l-20 52 21 22 c13 14 29 21 43 18 17 -3 33 7 65 41 36 39 42 52 42 90 0
40 -4 48 -50 89 -38 34 -61 47 -88 49 -36 3 -37 4 -35 42 2 21 21 77 44 124
58 121 170 232 291 292 73 36 90 41 103 30 8 -7 15 -24 15 -38 0 -18 15 -42
47 -74 42 -43 52 -48 92 -48 41 0 49 4 93 52 40 44 48 58 48 91 l0 40 40 -6
c23 -3 75 -22 118 -42z m-936 28 c-10 -4 -10 -8 -1 -19 7 -8 7 -14 1 -14 -5 0
-15 6 -21 14 -12 14 -2 24 24 24 6 0 4 -2 -3 -5z m1498 -13 c0 -5 -4 -10 -10
-10 -5 0 -10 5 -10 10 0 6 5 10 10 10 6 0 10 -4 10 -10z m-177 -27 c9 -9 -12
-33 -29 -33 -15 0 -15 21 1 32 13 10 20 10 28 1z m-53 -24 c0 -6 -4 -7 -10 -4
-5 3 -10 11 -10 16 0 6 5 7 10 4 6 -3 10 -11 10 -16z m401 -99 c23 0 131 -57
147 -77 6 -9 12 -22 12 -27 0 -6 -4 -5 -9 3 -5 7 -14 10 -20 7 -6 -4 -11 -2
-11 5 0 11 -42 8 -92 -7 -10 -3 -18 -1 -18 5 0 6 8 12 18 13 9 0 -3 4 -27 7
-50 7 -60 20 -35 46 11 10 13 19 7 23 -5 4 -13 21 -16 37 l-7 30 17 -32 c9
-18 24 -33 34 -33z m174 -10 c3 -5 2 -10 -4 -10 -5 0 -13 5 -16 10 -3 6 -2 10
4 10 5 0 13 -4 16 -10z m-1845 -80 c0 -5 -2 -10 -4 -10 -3 0 -8 5 -11 10 -3 6
-1 10 4 10 6 0 11 -4 11 -10z m1260 -11 c0 -5 -5 -9 -11 -9 -5 0 -7 -4 -4 -10
3 -5 4 -10 1 -10 -3 0 -10 8 -15 18 -8 14 -6 18 10 19 10 1 19 -2 19 -8z m175
-39 c4 -14 11 -27 16 -30 11 -7 0 -50 -13 -50 -6 0 -8 6 -5 13 3 7 -4 19 -14
25 -14 9 -19 24 -19 53 0 34 2 38 14 27 7 -8 17 -25 21 -38z m337 13 c18 -16
18 -16 12 1 -6 16 -5 16 13 5 19 -12 17 -15 -44 -56 -36 -25 -67 -43 -69 -40
-3 3 11 15 31 27 20 12 34 25 31 28 -3 2 -11 1 -18 -4 -7 -6 -24 -11 -38 -12
-22 -3 -26 1 -24 25 0 20 7 29 25 34 41 12 62 10 81 -8z m-452 -30 c0 -4 6
-20 14 -34 11 -22 11 -29 -2 -45 -12 -16 -14 -16 -9 -1 4 9 2 17 -3 17 -18 0
-39 45 -33 72 4 23 7 25 19 13 8 -7 14 -17 14 -22z m-1367 -14 c-4 -15 -8 -17
-14 -8 -8 14 -3 29 11 29 4 0 6 -9 3 -21z m1422 -22 c-1 -23 -24 -71 -25 -50
0 6 5 15 11 19 8 4 8 9 0 17 -15 15 -14 37 2 37 7 0 12 -10 12 -23z m-85 -22
c0 -5 -5 -3 -10 5 -5 8 -10 20 -10 25 0 6 5 3 10 -5 5 -8 10 -19 10 -25z m184
0 c-4 -8 -8 -15 -10 -15 -2 0 -4 7 -4 15 0 8 4 15 10 15 5 0 7 -7 4 -15z
m-1730 -1 c9 -3 14 -10 11 -15 -7 -10 -35 0 -35 12 0 11 3 11 24 3z m166 -24
c0 -5 -2 -10 -4 -10 -3 0 -8 5 -11 10 -3 6 -1 10 4 10 6 0 11 -4 11 -10z
m1404 -32 c-7 -11 15 -60 25 -54 5 3 12 -1 15 -10 4 -9 9 -14 13 -11 10 11 32
-13 26 -29 -3 -8 4 -25 16 -38 12 -12 18 -26 14 -29 -3 -4 -7 -18 -9 -31 -2
-17 3 -26 17 -29 18 -5 25 9 20 37 -1 5 2 12 6 15 4 3 17 16 27 29 16 18 17
22 4 17 -14 -6 -16 0 -13 29 2 20 0 36 -4 36 -12 0 -5 70 8 83 6 6 11 7 12 2
0 -6 2 -18 4 -28 2 -9 -1 -15 -6 -11 -15 9 -10 -13 6 -26 8 -7 15 -19 15 -26
0 -8 6 -14 13 -15 9 0 9 -2 -1 -6 -10 -4 -10 -9 3 -23 9 -10 12 -21 7 -24 -6
-4 -7 -20 -2 -43 5 -20 6 -41 3 -47 -4 -6 -7 -24 -8 -41 -1 -16 -7 -31 -13
-31 -7 -1 -17 -2 -23 -3 -5 0 -7 -6 -3 -13 5 -8 2 -9 -10 -5 -14 5 -15 3 -6
-13 14 -25 13 -30 -6 -30 -11 0 -14 5 -9 18 5 13 4 14 -6 5 -9 -9 -9 -15 0
-26 6 -8 9 -22 5 -31 -5 -13 -2 -15 12 -10 16 6 17 5 7 -7 -7 -7 -13 -26 -13
-42 0 -25 -2 -28 -15 -17 -12 10 -15 10 -15 -4 0 -9 -6 -16 -14 -16 -7 0 -16
-8 -20 -17 -3 -10 -9 -24 -12 -32 -4 -9 -2 -11 5 -7 14 9 14 0 0 -26 -9 -17
-8 -23 6 -30 15 -9 15 -11 -1 -29 -9 -10 -21 -16 -25 -13 -5 3 -9 -2 -9 -11 0
-14 4 -13 29 4 37 26 66 27 98 1 14 -11 31 -20 38 -20 12 0 25 -21 25 -41 0
-5 -11 -9 -24 -9 -13 0 -29 -7 -36 -15 -9 -11 -16 -13 -24 -5 -15 15 -29 12
-22 -6 3 -8 2 -13 -3 -9 -11 6 -83 -34 -77 -44 3 -4 -4 -8 -15 -9 -10 -1 -28
-3 -39 -4 -14 -2 -20 -10 -21 -28 -1 -20 -2 -21 -6 -5 -3 11 -9 25 -14 31 -7
8 2 19 26 34 19 12 35 25 35 29 0 4 9 17 21 30 23 25 19 38 -8 26 -10 -5 -24
-7 -30 -6 -7 1 -13 -8 -13 -20 0 -15 -4 -19 -16 -15 -8 3 -12 2 -9 -4 3 -5 -9
-19 -27 -30 -25 -15 -28 -20 -14 -20 17 0 15 -15 -2 -15 -15 0 -102 -67 -97
-74 2 -5 -1 -14 -9 -20 -11 -9 -15 -9 -18 1 -3 8 -18 4 -51 -15 -43 -25 -52
-37 -48 -59 0 -5 -4 -8 -9 -8 -6 0 -10 7 -10 15 0 17 -26 20 -35 5 -4 -6 -16
-8 -28 -4 -18 6 -20 4 -11 -7 8 -10 4 -20 -13 -36 -27 -26 -31 -19 -6 10 17
18 17 19 -7 15 -14 -2 -24 -9 -22 -16 2 -10 -3 -10 -17 -2 -19 10 -51 4 -51
-9 0 -4 5 -12 11 -18 6 -6 7 -13 1 -17 -5 -3 -20 6 -32 19 -32 34 -54 31 -96
-10 -41 -41 -44 -42 -37 -12 l5 22 -17 -23 c-13 -18 -20 -20 -31 -11 -7 6 -20
9 -28 6 -10 -4 -13 -1 -9 9 7 19 -6 18 -30 -3 -20 -17 -20 -17 -13 1 5 16 4
17 -9 6 -12 -10 -15 -9 -16 6 0 11 -3 14 -6 7 -2 -7 -9 -13 -14 -13 -6 0 -5 9
1 21 7 12 18 18 26 15 22 -8 17 0 -11 18 -17 11 -23 12 -19 3 2 -7 -7 -28 -22
-47 -21 -28 -25 -30 -19 -11 6 21 5 23 -14 18 -11 -3 -21 -1 -21 4 0 5 7 9 15
9 8 0 15 5 15 10 0 6 -12 8 -27 5 -24 -5 -25 -4 -10 5 9 6 27 8 40 4 35 -10 7
11 -30 24 -25 8 -34 8 -44 -4 -6 -8 -8 -14 -3 -14 12 0 -18 -20 -30 -20 -5 0
-6 3 -3 7 4 3 -21 19 -54 36 -37 18 -64 38 -69 52 -10 27 -50 66 -60 60 -4 -2
-17 5 -29 16 -12 11 -26 17 -33 13 -7 -4 -8 -3 -4 4 4 7 1 12 -8 12 -9 0 -16
9 -16 21 0 11 4 17 10 14 6 -3 7 1 3 10 -5 13 -7 14 -14 3 -5 -7 -9 -11 -10
-8 0 3 -2 13 -4 22 -2 10 1 20 6 24 17 10 9 40 -16 64 -19 18 -31 21 -55 16
-19 -3 -29 -2 -25 4 3 6 13 10 21 10 20 0 17 13 -7 28 -16 10 -20 20 -16 42 4
16 0 35 -7 46 -8 10 -12 24 -9 30 5 14 -10 45 -34 69 -22 23 -33 101 -19 140
6 16 6 17 -3 5 -5 -8 -13 -11 -17 -7 -4 3 -2 12 3 19 14 17 14 79 1 95 -7 9
-7 13 0 13 6 0 13 19 17 43 9 51 15 63 25 47 5 -8 9 -5 12 8 4 15 2 19 -8 15
-11 -4 -12 0 -6 18 8 19 16 24 51 24 40 0 41 -1 41 -34 0 -19 -8 -44 -17 -55
l-18 -21 23 19 c18 16 25 17 35 6 6 -7 7 -10 1 -7 -12 7 -9 -77 7 -188 23
-161 100 -302 217 -400 133 -110 255 -154 429 -155 196 0 325 52 459 185 131
130 181 240 191 417 5 95 -2 174 -24 253 -5 20 -5 20 10 0 8 -11 13 -23 11
-27z m-1559 12 c-3 -5 -12 -10 -18 -10 -7 0 -6 4 3 10 19 12 23 12 15 0z
m-115 -4 c0 -3 -4 -8 -10 -11 -5 -3 -10 -1 -10 4 0 6 5 11 10 11 6 0 10 -2 10
-4z m2100 -17 c0 -18 -2 -19 -15 -9 -8 7 -15 16 -15 21 0 5 7 9 15 9 9 0 15
-9 15 -21z m-355 -40 c-5 -7 -11 -6 -21 2 -11 9 -12 15 -2 26 10 12 13 12 20
-1 5 -9 6 -21 3 -27z m-1685 21 c-19 -13 -30 -13 -30 0 0 6 10 10 23 10 18 0
19 -2 7 -10z m320 -21 c0 -6 -4 -7 -10 -4 -5 3 -10 11 -10 16 0 6 5 7 10 4 6
-3 10 -11 10 -16z m-390 -44 c0 -12 -19 -12 -23 0 -4 9 -1 12 9 8 7 -3 14 -7
14 -8z m1601 -129 c-5 -53 -8 -57 -20 -42 -11 13 -12 24 -2 55 6 21 11 51 12
67 1 29 1 29 8 4 4 -14 5 -52 2 -84z m194 94 c3 -6 -1 -7 -9 -4 -18 7 -21 14
-7 14 6 0 13 -4 16 -10z m-1935 -55 c-13 -14 -27 -25 -32 -25 -11 0 34 49 46
49 5 1 -1 -10 -14 -24z m160 -4 c0 -10 10 -25 23 -34 17 -12 20 -18 10 -28 -7
-7 -16 -9 -20 -5 -4 4 -1 11 7 16 11 7 8 10 -14 10 -23 0 -27 3 -23 20 6 25
-8 25 -56 1 -20 -10 -37 -16 -37 -12 0 8 80 49 98 50 6 1 12 -7 12 -18z m2100
15 c0 -3 -4 -8 -10 -11 -5 -3 -10 -1 -10 4 0 6 5 11 10 11 6 0 10 -2 10 -4z
m91 -102 c30 -20 35 -29 31 -54 -4 -26 -7 -29 -44 -28 -22 0 -43 -4 -47 -9 -6
-10 -51 -25 -51 -17 0 3 10 8 22 13 19 7 15 9 -23 16 l-44 8 45 7 c24 4 52 5
62 2 20 -5 52 23 43 38 -3 5 -17 10 -30 10 -30 0 -55 10 -55 21 0 4 8 6 18 4
9 -3 -2 4 -25 15 -24 12 -43 25 -43 29 0 13 98 -26 141 -55z m-2376 6 c4 -6
-7 -10 -27 -9 -31 1 -32 1 -8 9 14 4 26 8 27 9 1 1 5 -3 8 -9z m355 -10 c0 -5
-5 -10 -11 -10 -5 0 -7 5 -4 10 3 6 8 10 11 10 2 0 4 -4 4 -10z m-296 -126
c25 -19 44 -39 41 -44 -3 -6 -18 3 -33 18 -15 15 -38 35 -52 44 -14 9 -20 17
-14 17 6 1 32 -15 58 -35z m237 -17 c-10 -9 -11 -8 -5 6 3 10 9 15 12 12 3 -3
0 -11 -7 -18z m-51 9 c0 -2 -7 -6 -15 -10 -8 -3 -15 -1 -15 4 0 6 7 10 15 10
8 0 15 -2 15 -4z m109 0 c-2 -2 -14 -9 -26 -15 -19 -10 -22 -9 -17 4 4 8 15
15 27 15 11 0 18 -2 16 -4z m-144 -16 c4 -6 15 -8 25 -5 13 4 22 -1 29 -14 12
-22 9 -26 -36 -36 -24 -5 -33 -3 -33 7 0 7 -3 23 -6 36 -6 22 9 31 21 12z
m-105 -60 c0 -5 -2 -10 -4 -10 -3 0 -8 5 -11 10 -3 6 -1 10 4 10 6 0 11 -4 11
-10z m2073 -10 c-3 -11 -9 -17 -14 -15 -10 7 -1 35 11 35 5 0 6 -9 3 -20z
m-1803 -14 c0 -11 -19 -15 -25 -6 -3 5 1 10 9 10 9 0 16 -2 16 -4z m1893 -43
c-5 -10 -15 -19 -23 -21 -11 -3 -11 1 3 16 19 20 23 37 7 27 -6 -4 -7 1 -3 11
5 14 7 14 14 1 5 -8 6 -24 2 -34z m-1983 27 c0 -5 -2 -10 -4 -10 -3 0 -8 5
-11 10 -3 6 -1 10 4 10 6 0 11 -4 11 -10z m154 -6 c3 -8 2 -12 -4 -9 -6 3 -10
10 -10 16 0 14 7 11 14 -7z m-50 -49 c-25 -19 -34 -19 -34 0 0 10 10 15 27 15
26 0 26 -1 7 -15z m1943 -45 c-6 -22 -15 -40 -19 -40 -4 0 -5 6 -3 13 27 78
39 92 22 27z m-2053 4 c3 -8 2 -12 -4 -9 -6 3 -10 10 -10 16 0 14 7 11 14 -7z
m1909 -63 c33 -30 63 -81 47 -81 -5 0 -10 6 -10 13 0 7 -20 33 -45 57 -37 36
-45 41 -51 27 -3 -9 -10 -17 -15 -17 -5 0 -3 11 3 25 12 27 15 26 71 -24z
m-1893 29 c0 -5 -5 -10 -11 -10 -5 0 -7 5 -4 10 3 6 8 10 11 10 2 0 4 -4 4
-10z m1989 -44 c-3 -3 -11 5 -18 17 -13 21 -12 21 5 5 10 -10 16 -20 13 -22z
m-2113 -14 c-4 -10 1 -32 9 -49 15 -31 45 -43 104 -43 20 0 39 -13 72 -52 25
-29 49 -60 53 -68 8 -15 -27 21 -76 78 -22 27 -31 31 -57 26 -17 -4 -38 -3
-48 1 -10 4 -33 9 -51 11 -51 5 -72 14 -72 30 0 10 -5 12 -12 8 -9 -5 -9 -2 1
9 18 23 30 21 24 -3 -6 -22 8 -25 42 -10 19 8 19 9 -2 9 -26 1 -29 11 -11 29
7 7 8 12 4 12 -5 0 -3 7 4 15 17 20 23 19 16 -3z m164 -13 c0 -6 -4 -7 -10 -4
-5 3 -10 11 -10 16 0 6 5 7 10 4 6 -3 10 -11 10 -16z m955 3 c-27 -10 -63 -16
-78 -13 -40 5 -24 15 36 22 86 10 95 8 42 -9z m-1077 -11 c3 -8 -1 -12 -9 -9
-7 2 -15 10 -17 17 -3 8 1 12 9 9 7 -2 15 -10 17 -17z m1986 -41 c11 8 16 8
21 0 4 -6 13 -9 21 -6 8 3 11 0 7 -10 -3 -9 -13 -13 -27 -9 -16 5 -18 4 -6 -4
31 -21 0 -21 -36 1 -21 13 -53 28 -71 34 -28 10 -35 9 -49 -7 -20 -22 -12 -49
14 -49 11 0 26 -7 33 -16 11 -13 25 -15 84 -9 79 8 98 18 90 49 -6 20 -6 20 7
-1 13 -21 16 -23 39 -23 7 0 1 -8 -12 -19 -28 -22 -110 -40 -194 -42 -59 -2
-85 -11 -85 -31 0 -6 8 -4 18 3 14 11 14 10 -2 -8 -10 -13 -22 -21 -26 -18 -4
2 -20 -9 -35 -25 -57 -59 -45 -28 14 38 52 58 57 67 40 70 -11 2 -27 -5 -34
-15 -13 -17 -14 -17 -29 2 -21 27 -20 30 9 43 25 11 35 42 14 42 -5 0 -7 5 -4
10 3 6 17 10 29 10 13 0 29 6 35 14 10 12 20 11 67 -11 42 -19 58 -22 68 -13z
m-1059 -10 c3 -5 2 -10 -4 -10 -5 0 -13 5 -16 10 -3 6 -2 10 4 10 5 0 13 -4
16 -10z m188 3 c-7 -2 -19 -2 -25 0 -7 3 -2 5 12 5 14 0 19 -2 13 -5z m653
-18 c14 -13 13 -15 -5 -15 -12 0 -21 6 -21 15 0 8 3 15 6 15 3 0 12 -7 20 -15z
m-194 -57 c-7 -7 -12 -8 -12 -2 0 14 12 26 19 19 2 -3 -1 -11 -7 -17z m-1502
2 c14 -4 21 -9 15 -10 -21 -4 -81 2 -95 11 -19 11 44 10 80 -1z m1338 -80 c-7
-11 -14 -16 -16 -10 -2 6 -9 8 -15 4 -7 -3 -3 2 7 10 27 22 39 20 24 -4z m319
-17 c-3 -3 -11 -2 -17 2 -8 5 -7 11 2 22 12 15 13 14 16 -1 2 -10 1 -20 -1
-23z m-1411 -10 c-7 -7 -26 7 -26 19 0 6 6 6 15 -2 9 -7 13 -15 11 -17z m1349
17 c3 -5 1 -10 -4 -10 -6 0 -11 5 -11 10 0 6 2 10 4 10 3 0 8 -4 11 -10z
m-1575 -45 c-7 -8 -18 -15 -24 -15 -6 0 -2 7 8 15 25 19 32 19 16 0z m1544 -9
c-10 -8 -21 -12 -23 -10 -3 2 4 11 15 18 10 8 21 12 23 10 3 -2 -4 -11 -15
-18z m-1228 -34 c-4 -3 -14 2 -24 12 -16 18 -16 18 6 6 13 -6 21 -14 18 -18z
m762 9 c11 -7 11 -9 -1 -14 -9 -3 -18 1 -21 9 -6 16 2 18 22 5z m347 -1 c3 -6
-5 -10 -19 -10 -14 0 -28 5 -31 10 -3 6 5 10 19 10 14 0 28 -4 31 -10z m-465
-4 c0 -2 -7 -7 -16 -10 -8 -3 -12 -2 -9 4 6 10 25 14 25 6z m397 -2 c-3 -3
-12 -4 -19 -1 -8 3 -5 6 6 6 11 1 17 -2 13 -5z m310 -41 c-3 -10 -5 -2 -5 17
0 19 2 27 5 18 2 -10 2 -26 0 -35z m-192 17 c3 -5 0 -7 -8 -4 -8 3 -18 1 -22
-5 -3 -6 -12 -11 -18 -11 -7 0 -3 7 7 15 23 18 33 19 41 5z m-1270 -30 c3 -5
2 -10 -4 -10 -5 0 -13 5 -16 10 -3 6 -2 10 4 10 5 0 13 -4 16 -10z m1479 -63
c7 -6 6 -7 -4 -4 -8 2 -16 16 -17 33 -1 25 0 26 4 4 3 -14 10 -29 17 -33z
m-1204 33 c0 -5 -2 -10 -4 -10 -3 0 -8 5 -11 10 -3 6 -1 10 4 10 6 0 11 -4 11
-10z m1085 -10 c22 18 32 3 12 -17 -16 -16 -19 -16 -45 12 -16 18 -18 22 -5
11 19 -16 25 -17 38 -6z m29 -37 c-27 -20 -37 -16 -14 7 11 11 21 26 21 33 1
6 4 3 6 -7 3 -12 -2 -25 -13 -33z m-1412 20 c16 -14 24 -14 59 -4 23 7 43 10
46 8 2 -3 -13 -10 -34 -16 -21 -7 -55 -17 -76 -23 -32 -10 -40 -9 -55 5 -10
11 -12 17 -4 17 7 0 12 -4 12 -10 0 -14 23 -13 38 2 9 9 7 14 -6 24 -9 8 -13
14 -8 14 5 0 18 -7 28 -17z m204 1 c18 -14 18 -14 -6 -3 -31 14 -36 19 -24 19
6 0 19 -7 30 -16z m214 -24 c0 -4 -9 -10 -20 -13 -15 -4 -20 0 -20 13 0 13 5
17 20 13 11 -3 20 -9 20 -13z m794 -4 c-56 -25 -82 -28 -44 -7 19 11 44 20 55
20 15 0 12 -3 -11 -13z m-1066 -12 c-9 -9 -27 -14 -44 -12 l-29 4 35 11 c49
16 57 15 38 -3z m138 0 c18 -14 18 -14 -6 -3 -31 14 -36 19 -24 19 6 0 19 -7
30 -16z m704 7 c0 -9 -41 -23 -49 -16 -3 4 28 20 47 24 1 1 2 -3 2 -8z m-766
-22 c35 -20 47 -39 25 -39 -5 0 -8 4 -5 9 6 10 -21 24 -33 17 -4 -3 -12 4 -19
15 -15 24 -11 24 32 -2z m316 1 c0 -13 -20 -13 -40 0 -12 8 -9 10 13 10 15 0
27 -4 27 -10z m320 -10 c-20 -13 -43 -13 -35 0 3 6 16 10 28 10 18 0 19 -2 7
-10z m247 -6 c-16 -9 -31 -13 -34 -10 -3 3 5 10 18 15 37 15 47 12 16 -5z
m330 2 c30 -1 31 -2 16 -18 -11 -12 -20 -15 -28 -8 -6 5 -25 10 -43 12 -25 2
-29 5 -20 16 6 7 18 10 27 6 9 -4 30 -7 48 -8z m-142 -16 c13 -5 14 -9 5 -9
-8 0 -24 4 -35 9 -13 5 -14 9 -5 9 8 0 24 -4 35 -9z m-637 -47 c-10 -2 -28 -2
-40 0 -13 2 -5 4 17 4 22 1 32 -1 23 -4z m42 -7 c0 -3 -4 -8 -10 -11 -5 -3
-10 -1 -10 4 0 6 5 11 10 11 6 0 10 -2 10 -4z m-240 -10 c0 -11 -19 -15 -25
-6 -3 5 1 10 9 10 9 0 16 -2 16 -4z m630 -16 c-6 -11 -13 -20 -16 -20 -2 0 0
9 6 20 6 11 13 20 16 20 2 0 0 -9 -6 -20z m-420 -16 c0 -2 -11 -4 -25 -4 -14
0 -25 4 -25 9 0 4 11 6 25 3 14 -2 25 -6 25 -8z m285 6 c-3 -5 -13 -10 -21
-10 -8 0 -12 5 -9 10 3 6 13 10 21 10 8 0 12 -4 9 -10z m-485 -4 c0 -3 -4 -8
-10 -11 -5 -3 -10 -1 -10 4 0 6 5 11 10 11 6 0 10 -2 10 -4z m76 -8 c4 -6 3
-8 -3 -5 -6 4 -28 -9 -51 -28 -22 -19 -48 -34 -59 -34 -16 1 -16 2 2 6 11 3
37 21 58 39 42 38 43 39 53 22z m171 6 c-3 -3 -12 -4 -19 -1 -8 3 -5 6 6 6 11
1 17 -2 13 -5z m-127 -24 c-13 -11 -28 -20 -34 -20 -13 0 35 39 48 40 5 0 -1
-9 -14 -20z"/>
<path d="M1465 1811 c-23 -10 -61 -43 -89 -75 l-49 -57 27 -102 c23 -88 32
-107 65 -140 33 -34 46 -40 102 -47 50 -6 66 -4 72 6 9 17 27 18 27 3 0 -5 -4
-7 -10 -4 -5 3 -10 1 -10 -4 0 -6 6 -11 14 -11 8 0 21 -2 29 -6 21 -8 83 46
65 57 -10 7 -10 9 3 9 28 0 60 45 64 89 2 24 8 48 14 55 32 38 -189 247 -259
245 -14 0 -43 -8 -65 -18z m249 -298 c-9 -21 -25 -47 -37 -58 l-21 -20 17 21
c9 11 17 26 17 32 0 17 22 62 31 62 4 0 1 -17 -7 -37z m-274 -23 c0 -5 -4 -10
-10 -10 -5 0 -10 5 -10 10 0 6 5 10 10 10 6 0 10 -4 10 -10z m100 -31 c0 -6
-4 -7 -10 -4 -5 3 -10 11 -10 16 0 6 5 7 10 4 6 -3 10 -11 10 -16z m30 -29 c0
-10 -4 -21 -9 -25 -5 -3 -9 8 -9 24 1 32 18 33 18 1z m60 9 c0 -5 -4 -8 -9 -5
-5 4 -12 0 -14 -6 -3 -8 -6 -6 -6 5 -1 9 6 17 14 17 8 0 15 -5 15 -11z"/>
<path d="M927 1779 c-84 -55 -207 -210 -194 -243 3 -8 20 -16 39 -20 25 -5 37
-15 49 -41 l16 -34 -31 -7 c-28 -6 -29 -8 -12 -18 11 -6 36 -26 57 -44 35 -31
40 -32 81 -23 23 5 71 15 104 21 54 11 66 17 99 56 34 42 37 51 46 140 5 53 5
102 1 108 -22 36 -113 105 -156 120 -27 9 -50 16 -51 16 -1 0 -22 -14 -48 -31z
m163 -303 c0 -3 -4 -8 -10 -11 -5 -3 -10 -1 -10 4 0 6 5 11 10 11 6 0 10 -2
10 -4z"/>
<path d="M1252 1623 c-49 -5 -48 -4 -61 -96 -8 -58 -15 -74 -48 -110 -31 -35
-51 -46 -113 -64 -41 -12 -78 -22 -82 -23 -11 0 -10 -108 0 -114 5 -3 42 -11
83 -17 55 -9 81 -18 102 -37 15 -14 27 -22 27 -18 0 4 17 -2 38 -15 29 -18 51
-23 102 -23 36 1 68 -4 72 -10 5 -8 8 -7 8 1 0 15 84 103 99 103 5 0 13 5 17
12 5 8 2 9 -10 5 -14 -6 -17 -3 -12 9 3 8 6 28 6 42 1 25 2 25 14 10 17 -23
44 -23 68 -1 10 9 18 12 18 7 -1 -13 -33 -51 -50 -58 -8 -3 3 -4 24 -1 22 2
44 9 49 14 13 13 22 107 11 114 -5 3 -45 13 -88 21 -106 22 -148 60 -177 161
-21 68 -35 97 -48 93 -3 -1 -25 -3 -49 -5z m97 -122 c9 -29 9 -32 -5 -27 -9 3
-25 6 -36 6 -20 0 -20 1 -4 19 12 13 16 27 11 43 -6 20 -5 21 8 8 8 -8 19 -30
26 -49z m-109 -1 c11 -11 16 -20 11 -20 -5 0 -16 -3 -25 -6 -12 -5 -16 0 -16
20 0 31 4 32 30 6z m306 -152 c5 -7 3 -8 -5 -3 -7 4 -22 -2 -37 -16 -13 -12
-24 -18 -24 -12 0 6 -3 18 -6 27 -5 13 1 16 29 16 20 0 39 -5 43 -12z m-453
-31 c-3 -18 0 -51 6 -72 6 -21 9 -40 7 -42 -11 -12 -84 12 -96 30 -12 20 -12
21 3 9 27 -23 62 -11 65 21 4 34 -15 60 -40 54 -10 -3 -18 -1 -18 4 0 5 12 11
28 15 23 5 40 10 49 13 1 1 -1 -14 -4 -32z"/>
<path d="M1544 1201 c-58 -14 -77 -24 -107 -57 -21 -23 -37 -49 -37 -64 0 -14
-4 -41 -9 -60 -5 -19 -12 -57 -16 -84 l-7 -49 31 5 c23 3 28 1 21 -7 -7 -9 -5
-16 5 -25 8 -7 15 -19 15 -26 0 -8 7 -14 16 -14 8 0 13 -4 10 -9 -8 -13 13
-27 64 -45 43 -15 46 -14 85 9 55 32 167 151 193 207 l22 45 -20 46 c-11 25
-44 68 -73 96 -60 58 -74 61 -193 32z m-78 -66 c-21 -16 -32 -13 -21 4 3 6 14
11 23 11 15 -1 15 -2 -2 -15z m278 -99 c-4 -11 -15 -29 -25 -40 -11 -11 -19
-24 -19 -30 0 -5 -3 -7 -6 -3 -3 3 5 25 19 49 14 24 23 50 20 58 -4 13 -3 13
6 0 6 -8 8 -24 5 -34z m-43 11 c-10 -9 -11 -8 -5 6 3 10 9 15 12 12 3 -3 0
-11 -7 -18z m-85 -162 c-54 -50 -76 -59 -76 -34 0 5 6 9 13 9 6 0 32 18 57 40
68 60 73 47 6 -15z m-51 10 c-22 -19 -44 -35 -49 -35 -12 0 -9 2 39 39 54 40
59 38 10 -4z"/>
<path d="M828 1131 c-31 -32 -58 -72 -61 -88 -4 -15 -10 -39 -13 -52 -6 -21
-5 -23 17 -16 13 5 30 8 37 8 6 0 12 5 12 11 0 5 14 -3 30 -19 27 -26 35 -26
31 -2 -2 12 6 8 20 -10 8 -9 9 -14 2 -10 -27 16 -18 -21 13 -53 l33 -35 -25
-12 c-22 -10 -24 -10 -19 8 9 28 -10 23 -23 -6 -9 -19 -9 -24 0 -22 7 1 17 -8
23 -20 12 -29 50 -30 65 -3 6 11 15 20 21 20 6 0 1 -16 -11 -35 -16 -26 -18
-35 -8 -36 26 -3 42 3 55 19 11 15 12 15 13 -5 0 -17 -6 -23 -22 -24 -17 -1
-19 -2 -6 -6 35 -9 124 43 165 95 l40 50 -19 103 c-16 93 -21 107 -54 140 -33
34 -42 37 -123 48 -136 17 -132 18 -193 -48z m308 -13 c5 -7 2 -9 -8 -5 -9 3
-21 0 -27 -6 -7 -7 -11 -7 -11 -1 0 24 33 33 46 12z m-198 -144 c-4 -3 -12 5
-18 18 -12 22 -12 22 6 6 10 -10 15 -20 12 -24z m202 -98 c0 -11 -82 -55 -95
-50 -8 4 -15 1 -15 -7 0 -7 -2 -10 -5 -7 -9 9 6 37 18 33 7 -3 30 4 52 14 47
23 45 22 45 17z"/>
<path d="M1177 1123 c15 -12 28 -43 40 -98 l19 -80 49 3 c58 4 62 7 75 52 l9
33 -22 -22 c-40 -37 -98 -18 -112 36 -9 39 -31 70 -57 83 l-23 11 22 -18z"/>
<path d="M1272 1068 c-24 -24 -7 -68 27 -68 23 0 50 30 44 48 -12 32 -49 42
-71 20z"/>
<path d="M797 963 c-4 -3 -7 -11 -7 -17 0 -6 5 -5 12 2 6 6 9 14 7 17 -3 3 -9
2 -12 -2z"/>
<path d="M540 1438 c0 -4 9 -8 20 -8 11 0 20 4 20 8 0 4 -9 8 -20 8 -11 0 -20
-4 -20 -8z"/>
<path d="M597 1353 c-3 -5 -1 -17 4 -28 7 -17 8 -17 8 8 1 27 -4 34 -12 20z"/>
<path d="M570 1306 c0 -2 8 -10 18 -17 15 -13 16 -12 3 4 -13 16 -21 21 -21
13z"/>
<path d="M517 1237 c-3 -7 3 -13 14 -13 13 0 15 3 7 13 -6 7 -12 13 -13 13 -2
0 -5 -6 -8 -13z"/>
<path d="M616 1147 c3 -10 9 -15 12 -12 3 3 0 11 -7 18 -10 9 -11 8 -5 -6z"/>
<path d="M1940 941 c0 -6 5 -13 10 -16 6 -3 10 1 10 9 0 9 -4 16 -10 16 -5 0
-10 -4 -10 -9z"/>
<path d="M646 852 c-3 -5 1 -9 9 -9 8 0 15 4 15 9 0 4 -4 8 -9 8 -6 0 -12 -4
-15 -8z"/>
<path d="M2050 751 c0 -5 -13 -11 -30 -14 -16 -4 -30 -11 -30 -17 0 -7 6 -8
19 0 11 5 29 10 40 10 25 0 36 16 16 24 -8 3 -15 2 -15 -3z"/>
<path d="M720 651 c0 -6 5 -13 10 -16 6 -3 10 1 10 9 0 9 -4 16 -10 16 -5 0
-10 -4 -10 -9z"/>
<path d="M1757 616 c-4 -10 -1 -13 9 -9 15 6 19 23 5 23 -5 0 -11 -7 -14 -14z"/>
<path d="M1540 555 c0 -5 5 -17 10 -25 5 -8 10 -10 10 -5 0 6 -5 17 -10 25 -5
8 -10 11 -10 5z"/>
<path d="M1100 509 c0 -5 5 -7 10 -4 6 3 10 8 10 11 0 2 -4 4 -10 4 -5 0 -10
-5 -10 -11z"/>
<path d="M1250 490 c0 -5 5 -10 10 -10 6 0 10 5 10 10 0 6 -4 10 -10 10 -5 0
-10 -4 -10 -10z"/>
<path d="M1160 439 c0 -5 5 -7 11 -3 6 3 15 0 20 -7 7 -11 9 -10 9 4 0 10 -8
17 -20 17 -11 0 -20 -5 -20 -11z"/>
<path d="M1226 431 c-9 -10 -16 -22 -16 -27 0 -5 6 -2 13 7 7 9 21 18 32 21
17 3 18 4 3 10 -9 4 -23 0 -32 -11z"/>
<path d="M2461 1153 c0 -6 -4 -20 -7 -30 -5 -14 -4 -15 5 -7 7 7 11 20 8 30
-3 11 -5 14 -6 7z"/>
<path d="M1766 2218 c5 -7 2 -9 -8 -5 -24 9 -30 -4 -10 -19 25 -19 32 -17 32
11 0 14 -5 25 -11 25 -5 0 -7 -5 -3 -12z"/>
<path d="M441 2210 c-18 -11 0 -19 23 -10 16 5 17 8 4 12 -8 4 -21 3 -27 -2z"/>
<path d="M629 2176 l-64 -44 -72 12 c-112 20 -163 4 -148 -44 7 -21 8 -21 34
11 27 32 28 32 74 21 89 -23 120 -17 193 38 83 62 71 66 -17 6z"/>
<path d="M1300 2210 c0 -5 5 -10 10 -10 6 0 10 5 10 10 0 6 -4 10 -10 10 -5 0
-10 -4 -10 -10z"/>
<path d="M970 2206 c0 -10 28 -13 41 -5 10 6 7 9 -13 9 -16 0 -28 -2 -28 -4z"/>
<path d="M330 2149 c0 -5 5 -7 10 -4 6 3 10 8 10 11 0 2 -4 4 -10 4 -5 0 -10
-5 -10 -11z"/>
<path d="M755 2150 c3 -5 16 -10 28 -9 21 0 21 1 2 9 -28 12 -37 12 -30 0z"/>
<path d="M670 2111 c0 -16 19 -23 40 -16 30 10 24 25 -10 25 -16 0 -30 -4 -30
-9z"/>
<path d="M420 2070 c-8 -5 -11 -12 -7 -16 4 -4 12 -3 18 3 8 8 25 2 61 -24
l49 -36 22 22 c16 16 18 21 6 21 -8 0 -20 -5 -25 -10 -7 -7 -25 -1 -55 20 -50
33 -49 33 -69 20z"/>
<path d="M2095 2045 c-57 -39 -67 -42 -58 -18 5 13 2 15 -11 10 -10 -4 -22 -7
-27 -7 -18 0 -8 -27 14 -37 18 -8 29 -4 66 23 29 23 48 31 55 25 7 -6 17 -6
26 -1 13 8 13 11 0 24 -13 14 -21 11 -65 -19z"/>
<path d="M316 2013 c8 -65 14 -67 14 -5 0 29 -4 52 -10 52 -6 0 -7 -19 -4 -47z"/>
<path d="M350 2038 c0 -7 4 -19 9 -26 6 -10 10 -7 13 12 4 18 1 26 -8 26 -8 0
-14 -6 -14 -12z"/>
<path d="M2196 2042 c-3 -5 1 -26 9 -48 l13 -39 0 43 c0 40 -11 62 -22 44z"/>
<path d="M285 1979 c-4 -6 -20 -7 -38 -3 -28 6 -30 5 -18 -10 8 -9 9 -16 3
-16 -6 0 -13 4 -17 10 -8 13 -55 -30 -55 -51 0 -10 13 -26 30 -36 17 -9 30
-21 30 -25 0 -4 4 -8 9 -8 9 0 46 79 43 93 -1 4 4 15 13 23 8 9 15 20 15 25 0
12 -7 11 -15 -2z"/>
<path d="M2393 1963 c4 -6 -5 -15 -19 -22 -35 -16 -49 -14 -34 4 10 13 9 15
-8 15 -18 0 -19 -4 -12 -27 19 -64 41 -103 58 -103 9 0 30 10 45 23 l28 22
-21 42 c-11 23 -25 45 -31 49 -7 4 -9 3 -6 -3z"/>
<path d="M466 1941 c-11 -12 -13 -21 -7 -25 5 -4 15 3 21 15 15 28 7 34 -14
10z"/>
<path d="M2160 1936 c0 -2 8 -10 18 -17 15 -13 16 -12 3 4 -13 16 -21 21 -21
13z"/>
<path d="M301 1874 c-17 -26 -31 -50 -31 -54 0 -3 -21 -13 -47 -22 -27 -9 -57
-24 -68 -33 -20 -16 -19 -16 6 -11 14 3 46 15 71 26 37 16 52 31 78 76 39 70
32 84 -9 18z"/>
<path d="M342 1868 c-16 -24 -32 -53 -36 -65 -6 -17 -22 -27 -64 -39 -31 -8
-71 -22 -89 -30 -17 -8 -36 -14 -41 -14 -6 0 -14 -10 -18 -22 -5 -16 -1 -27
16 -40 23 -18 23 -18 40 7 24 37 57 59 63 42 3 -7 6 -5 6 5 1 11 12 20 29 24
15 3 32 7 39 9 6 2 14 -3 18 -12 5 -13 8 -14 18 -3 9 10 9 13 0 17 -7 3 -13
13 -13 24 0 12 5 16 15 13 18 -7 37 4 29 17 -4 6 -11 6 -20 -2 -21 -18 -17 -4
17 51 39 63 32 77 -9 18z"/>
<path d="M2296 1847 c3 -10 9 -15 12 -12 3 3 0 11 -7 18 -10 9 -11 8 -5 -6z"/>
<path d="M295 1674 c-8 -13 -18 -14 -54 -5 -48 10 -61 8 -61 -13 0 -13 109
-61 118 -51 3 2 -1 12 -9 21 -13 16 -12 17 9 12 15 -4 22 -2 22 9 0 8 4 12 8
9 4 -2 8 4 8 15 0 23 -27 25 -41 3z"/>
<path d="M350 1670 c0 -5 5 -10 11 -10 5 0 7 5 4 10 -3 6 -8 10 -11 10 -2 0
-4 -4 -4 -10z"/>
<path d="M377 1656 c-4 -10 -3 -15 3 -11 13 8 13 -1 0 -26 -13 -24 -2 -25 16
-1 15 19 19 46 5 38 -5 -4 -11 -1 -13 6 -3 7 -7 5 -11 -6z"/>
<path d="M78 1628 c-3 -15 -2 -26 1 -24 3 1 14 -5 24 -16 9 -10 15 -18 12 -18
-3 0 4 -9 15 -20 11 -11 22 -20 25 -20 9 0 -25 60 -44 79 -10 10 -21 25 -23
32 -3 8 -7 2 -10 -13z"/>
<path d="M120 1621 c0 -5 5 -13 10 -16 6 -3 10 -2 10 4 0 5 -4 13 -10 16 -5 3
-10 2 -10 -4z"/>
<path d="M184 1592 c20 -21 25 -32 15 -32 -13 -1 58 -30 74 -30 4 0 7 8 7 18
0 11 3 13 8 6 8 -13 46 -2 57 15 4 7 -9 11 -39 11 -26 0 -46 -5 -48 -12 -3 -9
-11 -8 -29 5 -73 52 -76 53 -45 19z"/>
<path d="M205 1520 c3 -5 8 -10 11 -10 2 0 4 5 4 10 0 6 -5 10 -11 10 -5 0 -7
-4 -4 -10z"/>
<path d="M23 1470 c1 -3 -5 -16 -12 -29 -16 -29 -6 -41 48 -57 l39 -11 4 48 3
47 -42 4 c-23 2 -41 1 -40 -2z m62 -70 c3 -5 1 -10 -4 -10 -6 0 -11 5 -11 10
0 6 2 10 4 10 3 0 8 -4 11 -10z"/>
<path d="M2501 1447 c-17 -21 -13 -157 5 -157 8 0 14 10 14 26 0 17 6 28 20
31 11 3 18 9 15 13 -3 5 4 6 15 3 16 -4 19 -2 13 13 -3 11 -11 22 -17 26 -8 5
-7 8 1 8 7 0 17 -8 22 -17 13 -23 14 -12 2 21 -8 21 -15 24 -42 19 -26 -4 -31
-2 -26 11 8 19 -6 21 -22 3z"/>
<path d="M2540 1198 c0 -16 10 -22 31 -20 4 1 9 -8 12 -18 3 -11 1 -20 -4 -20
-5 0 -9 -7 -9 -15 0 -22 18 -18 25 5 6 20 -12 66 -22 56 -3 -3 -12 2 -19 12
-13 16 -13 16 -14 0z"/>
</g>
</svg>
